# xmcd
#
# Track frame offsets:
#	150
#	14754
#	28550
#	42121
#	54277
#	67398
#	79622
#	89078
#	99439
#	110640
#	120564
#	133503
#	148239
#	161028
#	175306
#	187147
#	198448
#	207979
#	225204
#	239962
#	257703
#	266304
#	279369
#	289441
#	303650
#	322479
#	332716
#	343832
#
# Disc length: 4755
#
# Revision: 1
# Processed by: cddbd v1.5.1PL0 Copyright (c) Steve Scherf et al.
# Submitted via: FreeRIP 2.30 
# Normalized: r0:DSETVAR1
#
DISCID=bd12911c
DTITLE=Various Artist - Romantic Collection
DYEAR=2000
DGENRE=Country
TTITLE0=Jean-Luc Ponty - New Country
TTITLE1=John Fogerty - Big Train
TTITLE2=Reba McFutire - Cumb That Mountain High
TTITLE3=S.Buono - Ode To 33
TTITLE4=Stone Wall Jackson - Me And You And A Dog Named Boo
TTITLE5=Jonny Russel - Workin' Man Blues
TTITLE6=Mango Smith - There I've Said It
TTITLE7=Green - Six Days On The Road
TTITLE8=Garth Brooks - Against The Grain
TTITLE9=Bobby Lewis - Hello Mary Lou
TTITLE10=Dolly Parton - If You Need Me
TTITLE11=Bob Lumon - Lonely Woman Makes Good Lovers
TTITLE12=Kenny Rogers - Reuben James
TTITLE13=Tanya Tucker - If Your Aint Busy Tonight
TTITLE14=Connie Smith - Just One Time
TTITLE15=Freddy Weller - Promised Land
TTITLE16=Johnny Cash - Wreck Of The Old
TTITLE17=Kenny Rogers - Coward Of The Country
TTITLE18=Larry Cordie - Highways 40 Blues
TTITLE19=John Fogerty - Centerfiels
TTITLE20=Willie Nelson - Things To Remember
TTITLE21=Kenny Price - Sherriff Of Boone Country
TTITLE22=Dave Dadley - Six Days On The Road
TTITLE23=Red Simpson - I Got A Beaver On My Lap
TTITLE24=Bobby Bare - The Jogger
TTITLE25=Lynn Anderson - Snowbird
TTITLE26=Johnny Russel - Act Naturally
TTITLE27=Jo Anne Houston - Blue Blue Day
EXTD=
EXTT0=
EXTT1=
EXTT2=
EXTT3=
EXTT4=
EXTT5=
EXTT6=
EXTT7=
EXTT8=
EXTT9=
EXTT10=
EXTT11=
EXTT12=
EXTT13=
EXTT14=
EXTT15=
EXTT16=
EXTT17=
EXTT18=
EXTT19=
EXTT20=
EXTT21=
EXTT22=
EXTT23=
EXTT24=
EXTT25=
EXTT26=
EXTT27=
PLAYORDER=
